<?xml version="1.0" standalone="no"?>
<!DOCTYPE svg PUBLIC "-//W3C//DTD SVG 20010904//EN"
 "http://www.w3.org/TR/2001/REC-SVG-20010904/DTD/svg10.dtd">
<svg version="1.0" xmlns="http://www.w3.org/2000/svg"
 width="260.000000pt" height="260.000000pt" viewBox="0 0 260.000000 260.000000"
 preserveAspectRatio="xMidYMid meet">
<metadata>
Created by potrace 1.14, written by Peter Selinger 2001-2017
</metadata>
<g transform="translate(0.000000,260.000000) scale(0.100000,-0.100000)"
fill="#000000" stroke="none">
<path d="M0 1300 l0 -1300 397 0 397 0 32 31 c27 26 37 30 61 24 l28 -7 -28
-24 -28 -24 870 0 871 0 0 1300 0 1300 -1300 0 -1300 0 0 -1300z m2060 322
c-7 -3 -16 2 -21 9 -16 25 -9 32 12 13 13 -12 16 -20 9 -22z m-1619 -69 c13
-16 12 -17 -3 -4 -10 7 -18 15 -18 17 0 8 8 3 21 -13z m837 -8 c17 -37 16 -38
-25 -31 -81 15 -93 27 -45 44 44 16 58 14 70 -13z m907 8 c4 9 12 17 18 17 5
0 2 -9 -7 -19 -11 -12 -15 -25 -10 -33 4 -7 4 -10 -1 -6 -4 4 -14 3 -20 -2
-20 -17 -39 14 -25 40 11 21 12 21 25 3 13 -17 14 -17 20 0z m-346 -64 c1 -10
-9 -19 -25 -23 -31 -8 -32 -8 -40 30 -4 24 -1 32 23 46 28 17 28 17 34 -10 4
-15 7 -34 8 -43z m-455 29 c-14 -66 -23 -76 -23 -27 -1 45 4 59 21 59 6 0 6
-14 2 -32z m-967 2 c-3 -11 -1 -18 3 -15 11 7 23 -31 15 -45 -11 -17 7 -11 21
8 13 16 14 16 8 -1 -4 -10 -18 -24 -33 -32 -24 -12 -29 -11 -50 11 -20 20 -22
27 -11 37 10 10 12 8 7 -6 -4 -10 -3 -16 2 -13 5 3 11 -1 15 -9 6 -17 26 -20
26 -4 0 5 -4 8 -9 4 -5 -3 -12 3 -16 14 -7 24 4 71 17 71 6 0 8 -9 5 -20z m68
-9 c10 -17 -12 -21 -25 -6 -10 12 -10 15 3 15 9 0 18 -4 22 -9z m-160 -22 c4
-11 5 -23 2 -26 -3 -2 -8 5 -12 17 -6 18 -9 19 -23 8 -15 -12 -16 -11 -3 5 18
23 28 22 36 -4z m555 -40 c0 -32 -7 -35 -34 -16 -15 11 -16 17 -5 40 9 21 15
24 26 16 7 -6 13 -24 13 -40z m1430 25 c0 -3 -10 -20 -22 -37 -27 -38 -27 -31
-6 -54 17 -19 16 -21 -33 -76 -28 -31 -54 -57 -57 -57 -4 0 -5 32 -4 71 3 49
0 69 -7 65 -6 -4 -50 -52 -97 -108 -67 -77 -84 -102 -73 -109 23 -15 37 -11
97 27 l57 36 -45 -46 c-24 -25 -48 -46 -53 -46 -5 0 -38 -32 -74 -70 -36 -39
-69 -67 -75 -64 -6 4 -48 -31 -94 -77 l-84 -84 0 36 c0 33 6 40 80 93 44 32
80 61 80 65 0 4 20 35 45 69 39 54 43 62 28 71 -14 8 -5 25 66 120 76 102 82
113 69 129 -15 17 -14 42 2 42 5 0 12 -10 16 -22 l6 -21 18 23 18 23 7 -31 c7
-35 7 -35 28 -26 12 4 14 15 10 41 -6 35 -6 35 26 28 20 -4 31 -3 31 5 0 8 6
8 20 0 11 -6 20 -13 20 -16z m-2007 -44 c3 -11 -2 -25 -10 -32 -8 -7 -18 -21
-22 -31 -7 -18 -8 -18 -31 3 l-25 21 25 -7 c20 -5 23 -4 13 7 -10 10 -9 17 9
36 26 28 34 29 41 3z m240 -5 c-3 -9 -8 -14 -10 -11 -3 3 -2 9 2 15 9 16 15
13 8 -4z m567 -31 c0 -2 -10 -4 -22 -4 -17 0 -19 3 -10 9 11 6 10 10 -4 15
-10 4 -21 1 -25 -6 -4 -7 -11 -9 -15 -5 -4 3 -1 13 6 22 11 13 16 12 41 -6 16
-11 29 -22 29 -25z m242 0 l-5 -26 -13 32 c-18 41 -18 43 5 31 13 -8 17 -18
13 -37z m960 -4 c10 -18 25 -30 38 -30 20 0 20 1 5 30 -9 17 -13 30 -11 30 2
0 30 -47 61 -105 51 -95 55 -107 41 -121 -9 -8 -16 -20 -16 -25 0 -6 -4 -8 -9
-5 -5 3 -12 -1 -15 -10 -4 -10 -2 -13 7 -8 6 3 -17 -23 -53 -59 -36 -36 -66
-64 -68 -63 -1 2 5 19 13 39 24 58 17 62 -32 19 -35 -29 -41 -50 -20 -71 10
-10 -1 -24 -53 -71 -36 -32 -66 -57 -68 -56 -1 2 5 20 13 40 l16 37 -30 -16
c-17 -8 -38 -15 -48 -14 -10 0 5 11 32 24 28 12 61 35 75 50 14 16 21 26 15
23 -5 -3 -53 -30 -106 -61 -92 -54 -149 -81 -149 -72 0 3 44 34 97 70 54 36
96 65 93 65 -32 -1 -119 -35 -140 -55 -15 -14 -35 -27 -46 -29 -10 -3 -39 -12
-63 -20 -44 -16 -44 -16 -26 4 10 11 31 20 47 20 24 0 28 3 23 19 -4 15 9 29
62 66 84 59 94 68 68 60 -16 -6 -16 -3 5 14 14 11 37 20 51 19 14 -1 46 10 72
25 39 23 47 25 47 12 0 -13 7 -15 33 -10 64 13 72 17 56 26 -23 12 -99 12
-139 0 -19 -6 -37 -11 -39 -11 -3 0 10 16 29 35 34 36 35 36 50 15 16 -21 17
-21 31 -3 13 17 13 17 -6 3 -18 -14 -19 -14 -7 2 13 17 23 17 106 -2 45 -10
56 -6 55 18 0 11 -3 12 -6 5 -7 -20 -19 -15 -31 12 -8 18 -8 25 -1 25 8 0 7 5
-1 15 -12 14 -17 12 -46 -16 -19 -18 -36 -30 -40 -27 -3 4 3 13 15 20 12 7 21
23 21 36 0 13 4 20 10 17 11 -6 -23 59 -42 83 -6 6 -7 12 -2 12 5 0 17 -14 26
-30z m-1781 -19 c-6 -4 -9 -15 -5 -24 3 -9 2 -17 -3 -17 -20 0 -22 14 -5 42 9
16 18 24 21 17 2 -6 -2 -15 -8 -18z m74 19 c3 -5 1 -10 -4 -10 -6 0 -11 5 -11
10 0 6 2 10 4 10 3 0 8 -4 11 -10z m100 -20 c-14 -15 -22 -17 -37 -9 -26 14
-13 29 24 29 30 0 31 -1 13 -20z m-380 -15 c17 -13 25 -24 19 -25 -6 0 -17 7
-24 15 -7 9 -19 14 -27 11 -7 -3 -13 1 -13 9 0 21 10 19 45 -10z m1600 -49 c4
-30 5 -61 2 -68 -3 -7 -6 5 -7 27 l-2 40 -14 -33 c-8 -18 -16 -56 -19 -84 -5
-63 -19 -80 -33 -41 -5 15 -13 36 -17 46 -6 13 -2 17 16 18 20 1 19 3 -9 12
-19 6 -31 15 -28 23 2 6 10 32 17 55 15 50 23 59 61 59 25 0 27 -4 33 -54z
m-1317 -10 c17 -30 32 -59 32 -65 0 -6 -22 4 -50 21 -27 18 -50 39 -50 46 0
17 19 52 28 52 4 0 22 -24 40 -54z m851 45 c11 -7 8 -40 -18 -195 -17 -103
-31 -193 -32 -199 -1 -7 -5 -1 -9 13 -4 14 -8 105 -9 202 -1 132 2 178 12 181
19 8 41 7 56 -2z m-1213 -20 c-3 -4 24 -31 59 -60 45 -37 62 -57 58 -68 -5
-12 -21 0 -70 50 -54 56 -71 87 -47 87 3 0 3 -4 0 -9z m142 -16 c-3 -3 -9 2
-12 12 -6 14 -5 15 5 6 7 -7 10 -15 7 -18z m116 -61 c1 -38 5 -74 8 -80 4 -5
3 -16 -2 -24 -7 -12 -18 -6 -55 30 -25 24 -45 49 -45 56 0 19 74 104 83 95 4
-4 9 -39 11 -77z m1154 5 c6 -25 7 -51 2 -65 -9 -22 -1 -32 58 -69 1 -1 -4
-15 -12 -31 -13 -27 -82 -200 -93 -234 -2 -8 14 5 38 30 l42 45 -37 -52 -36
-53 66 0 c51 0 73 5 95 21 16 11 34 17 40 13 7 -4 25 -7 42 -6 36 1 24 -14
-21 -28 -24 -6 -31 -6 -25 3 4 7 1 7 -10 -1 -32 -27 -54 -76 -44 -99 8 -18 16
-21 41 -17 l31 6 -30 -20 c-37 -25 -86 -40 -69 -22 8 8 9 21 2 44 -9 28 -14
32 -39 28 -17 -2 -31 -12 -34 -23 -13 -38 -56 -79 -85 -79 -15 0 -45 -8 -66
-17 -31 -13 -66 -16 -179 -14 -154 3 -203 14 -105 24 35 4 68 11 74 15 6 5 59
26 117 46 95 34 107 41 112 64 3 15 9 35 12 45 5 12 2 17 -9 17 -9 0 -16 3
-16 6 0 3 33 51 73 107 39 55 75 106 80 113 4 7 -2 28 -14 48 -18 32 -23 34
-45 24 -27 -13 -30 -23 -9 -35 12 -7 7 -26 -30 -118 -48 -119 -73 -149 -134
-159 -20 -3 -51 -9 -70 -12 l-33 -7 7 34 c8 38 44 103 53 95 2 -3 24 27 46 67
122 211 182 307 192 307 6 0 16 -19 22 -41z m-1302 10 l19 -22 -32 17 c-35 18
-41 26 -20 26 8 0 22 -10 33 -21z m319 -75 c9 -15 12 -23 6 -20 -11 7 -35 46
-28 46 3 0 12 -12 22 -26z m459 1 c-18 -28 -16 -27 -39 -18 -14 5 -11 9 16 24
19 10 35 18 37 19 1 0 -5 -11 -14 -25z m-679 -49 c6 2 35 -19 65 -47 l55 -51
-62 46 c-40 30 -63 42 -66 33 -3 -8 -12 -5 -30 11 -21 20 -32 23 -59 17 l-33
-7 24 26 24 25 36 -28 c20 -15 41 -27 46 -25z m-194 13 c19 -6 40 -13 47 -15
7 -2 10 -8 7 -14 -4 -7 -14 -5 -27 4 -11 8 -26 12 -33 10 -6 -3 -18 2 -25 11
-15 18 -13 18 31 4z m569 -65 c0 -24 -6 -37 -21 -45 -33 -17 -41 2 -22 54 13
36 20 44 30 35 7 -6 13 -25 13 -44z m-110 -86 c0 -4 -4 -8 -9 -8 -5 0 26 -35
70 -78 43 -43 79 -83 79 -90 0 -7 -4 -11 -9 -8 -5 4 -11 1 -13 -4 -4 -14 -183
82 -213 114 -13 14 -28 26 -33 26 -5 0 -9 7 -9 15 0 10 6 14 14 10 8 -3 21 -5
29 -5 7 0 11 -6 9 -12 -3 -8 17 -24 47 -40 l52 -28 -38 39 c-35 36 -36 40 -20
49 17 9 11 17 -49 72 -37 34 -67 66 -67 71 0 6 36 -18 80 -52 44 -34 80 -66
80 -71z m-450 95 c0 -11 -4 -11 -20 -3 -11 6 -20 15 -20 19 0 5 9 7 20 4 11
-3 20 -12 20 -20z m45 -33 c16 -31 55 -60 55 -40 0 8 6 8 20 0 11 -6 19 -16
17 -23 -1 -7 10 -12 27 -12 16 0 31 -5 33 -12 4 -11 -28 -7 -85 11 -22 7 -23
6 -17 -16 6 -20 4 -19 -23 10 -17 17 -35 32 -41 32 -5 0 -24 14 -41 31 -24 25
-27 31 -11 26 12 -3 22 1 25 9 9 22 24 16 41 -16z m545 -20 c0 -5 -2 -10 -4
-10 -3 0 -8 5 -11 10 -3 6 -1 10 4 10 6 0 11 -4 11 -10z m-374 -26 c18 -14 18
-14 -6 -3 -31 14 -36 19 -24 19 6 0 19 -7 30 -16z m402 -84 l-3 -84 -27 42
c-23 34 -26 46 -18 67 6 14 15 37 20 52 19 46 31 11 28 -77z m27 69 c-4 -5 0
-18 8 -27 15 -18 50 -82 44 -82 -2 0 -18 22 -36 50 -28 43 -33 70 -15 70 3 0
2 -5 -1 -11z m-374 -16 c13 -15 12 -15 -8 -4 -24 12 -29 21 -14 21 5 0 15 -7
22 -17z m819 -64 c0 -16 -4 -29 -10 -29 -5 0 -10 8 -10 18 0 9 -3 28 -7 42 -6
22 -5 24 10 11 9 -7 17 -26 17 -42z m-828 18 c9 -15 0 -27 -21 -27 -12 0 -20
9 -23 25 -5 22 -3 25 16 19 11 -4 24 -11 28 -17z m1558 -52 c-7 -8 -19 -15
-27 -15 -8 0 -11 -5 -8 -11 4 -6 -2 -13 -14 -16 -11 -3 -18 -9 -15 -14 3 -5
-3 -6 -12 -2 -10 3 -15 2 -12 -3 11 -17 -17 -33 -34 -20 -14 10 -12 14 15 26
20 9 26 15 17 18 -8 3 7 15 35 28 60 27 71 29 55 9z m-927 -9 c3 -8 3 -40 0
-71 -6 -59 -22 -77 -47 -56 -12 10 -11 22 7 76 22 66 31 76 40 51z m-611 -33
c47 -18 84 -43 85 -57 1 -5 7 -13 15 -17 9 -6 9 -9 1 -9 -7 0 -24 11 -39 25
-15 14 -32 25 -38 25 -16 0 -94 49 -79 50 7 0 32 -8 55 -17z m656 -58 c-5 -48
-23 -34 -26 20 -2 47 -1 49 13 30 9 -11 15 -33 13 -50z m-151 15 c18 -16 32
-30 29 -30 -12 0 -76 43 -76 51 0 15 11 10 47 -21z m-87 -62 c0 -15 -49 26
-50 41 0 10 8 7 25 -9 14 -13 25 -27 25 -32z m949 9 c-13 -5 -32 -13 -41 -18
-26 -14 -54 -11 -68 7 -8 8 -9 14 -4 13 5 -1 16 1 24 4 19 8 92 14 104 8 6 -3
-1 -9 -15 -14z m-1124 -29 l30 -17 -40 5 c-81 10 -104 15 -109 22 -9 14 90 6
119 -10z m131 -25 c-8 -8 -36 5 -36 17 0 7 6 7 21 0 11 -7 18 -14 15 -17z
m169 -19 c-11 -8 -26 -12 -33 -9 -8 3 -26 6 -40 6 -20 1 -17 4 13 9 22 4 49 8
60 8 20 1 20 1 0 -14z m-238 -10 c-3 -3 -12 -4 -19 -1 -8 3 -5 6 6 6 11 1 17
-2 13 -5z m78 -14 c-3 -5 -12 -10 -18 -10 -7 0 -6 4 3 10 19 12 23 12 15 0z
m188 3 c-7 -2 -19 -2 -25 0 -7 3 -2 5 12 5 14 0 19 -2 13 -5z m-105 -19 c77
-22 89 -36 16 -19 -32 8 -65 14 -71 15 -13 0 -19 20 -7 20 3 0 31 -7 62 -16z
m52 -41 c36 -9 88 -15 115 -15 28 1 97 1 154 2 58 0 129 7 161 15 83 22 96 17
20 -6 -43 -13 -74 -30 -91 -49 -14 -17 -38 -32 -55 -34 -84 -14 -115 -16 -110
-7 3 5 -18 15 -47 21 -49 12 -226 76 -236 85 -8 9 23 4 89 -12z"/>
<path d="M2113 1088 l-28 -30 60 7 c86 10 96 19 42 38 l-45 15 -29 -30z"/>
<path d="M771 866 c2 -2 15 -9 29 -15 24 -11 24 -11 6 3 -16 13 -49 24 -35 12z"/>
<path d="M2028 853 c7 -3 16 -2 19 1 4 3 -2 6 -13 5 -11 0 -14 -3 -6 -6z"/>
</g>
</svg>
